<svg width="22" height="22" viewBox="0 0 22 22" fill="none" xmlns="http://www.w3.org/2000/svg">
<path d="M11 1C5.47715 1 1 5.47715 1 11C1 16.5228 5.47715 21 11 21C16.5228 21 21 16.5228 21 11C21 5.47715 16.5228 1 11 1Z" stroke="#301B0A" stroke-width="2" stroke-linecap="round" stroke-linejoin="round"/>
<path d="M3.27148 17.3455C3.27148 17.3455 5.5005 14.4998 11.0005 14.4998C16.5005 14.4998 18.7296 17.3455 18.7296 17.3455" stroke="#301B0A" stroke-width="2" stroke-linecap="round" stroke-linejoin="round"/>
<path d="M11.002 11.0002C12.6589 11.0002 14.002 9.65714 14.002 8.00024C14.002 6.34339 12.6589 5.00024 11.002 5.00024C9.34505 5.00024 8.00195 6.34339 8.00195 8.00024C8.00195 9.65714 9.34505 11.0002 11.002 11.0002Z" stroke="#301B0A" stroke-width="2" stroke-linecap="round" stroke-linejoin="round"/>
</svg>
