<svg width="22" height="22" viewBox="0 0 22 22" fill="none" xmlns="http://www.w3.org/2000/svg">
<path d="M11 1.00018C5.47715 1.00018 1 5.47733 1 11.0002C1 16.523 5.47715 21.0002 11 21.0002C16.5228 21.0002 21 16.523 21 11.0002C21 5.47733 16.5228 1.00018 11 1.00018Z" stroke="#FDF9EF" stroke-width="2" stroke-linecap="round" stroke-linejoin="round"/>
<path d="M3.27148 17.3456C3.27148 17.3456 5.5005 14.4999 11.0005 14.4999C16.5005 14.4999 18.7296 17.3456 18.7296 17.3456" stroke="#FDF9EF" stroke-width="2" stroke-linecap="round" stroke-linejoin="round"/>
<path d="M11.002 11.0004C12.6589 11.0004 14.002 9.65733 14.002 8.00043C14.002 6.34358 12.6589 5.00043 11.002 5.00043C9.34505 5.00043 8.00195 6.34358 8.00195 8.00043C8.00195 9.65733 9.34505 11.0004 11.002 11.0004Z" stroke="#FDF9EF" stroke-width="2" stroke-linecap="round" stroke-linejoin="round"/>
</svg>
