<svg width="22" height="17" viewBox="0 0 22 17" fill="none" xmlns="http://www.w3.org/2000/svg">
<path d="M13.001 8.51611L9.50098 10.5161V6.51611L13.001 8.51611Z" fill="#301B0A" stroke="#301B0A" stroke-width="2" stroke-linecap="round" stroke-linejoin="round"/>
<path d="M1 9.22215V7.80705C1 4.9117 1 3.46404 1.90549 2.53257C2.81099 1.6011 4.23656 1.56078 7.08769 1.48014C8.43873 1.44193 9.8188 1.41455 11 1.41455C12.1812 1.41455 13.5613 1.44193 14.9123 1.48014C17.7634 1.56078 19.189 1.6011 20.0945 2.53257C21 3.46404 21 4.9117 21 7.80705V9.22215C21 12.1175 21 13.5651 20.0945 14.4965C19.189 15.428 17.7635 15.4684 14.9124 15.5491C13.5613 15.5873 12.1812 15.6147 11 15.6147C9.8188 15.6147 8.43867 15.5873 7.0876 15.5491C4.23651 15.4684 2.81097 15.428 1.90548 14.4965C1 13.5651 1 12.1175 1 9.22215Z" stroke="#301B0A" stroke-width="2"/>
</svg>
